# xmcd
#
# Track frame offsets:
#	150
#	12476
#	26519
#	41629
#	58080
#	74470
#	88525
#	105536
#	122446
#	134699
#	152407
#	168356
#	185340
#	203558
#	220156
#	232787
#	248647
#	264808
#	278772
#	295904
#	312856
#	329287
#
# Disc length: 4582 seconds
# Revision: 3
# Processed by: cddbd v1.5.2PL0 Copyright (c) Steve Scherf et al.
# Submitted via: dBpowerAMP V12.0
#
DISCID=2b11e416
DTITLE=Various Artist - Club Sounds Vol.49 [CD1)
DYEAR=2009
DGENRE=House
TTITLE0=Kid Cudi vs. Crookers - Day 'N' Nite
TTITLE1=Alcazar - Burning
TTITLE2=David May feat. Moises Modesto - Superstar
TTITLE3=Sonic Palms - On The beach
TTITLE4=Mack - Return Of The Mack (Spencer and Hill Remix)
TTITLE5=Chris Decay - Hold Tight
TTITLE6=Royal Gigolos - Get The Party Started
TTITLE7=Sono - Keep Control Plus
TTITLE8=Kurd Maverick - Blue Monday (Vandalism Remix Edit)
TTITLE9=Dennis Christopher - Set If Off (Ian Carey and Brad Holland Club Sounds Edit)
TTITLE10=Novy vs. Eniac - Superstar - Show Me Your Intention
TTITLE11=Lambda - Hold On Tight (Dabruck and Klein Remix)
TTITLE12=Carefree - Broken Strings (Sebo Reed Electro Mix)
TTITLE13=Kelly Clarkson - My Life Would Suck Without You (Chriss Ortega Remix)
TTITLE14=Recover Project - Sweet dreams (Vinylshakerz Remix)
TTITLE15=Brandy - Right Here (Departed) (Moto Blanco Remix)
TTITLE16=Selda - Use Your Head
TTITLE17=Jaybee - Suddenly
TTITLE18=Finger and Kadel - Mana Mana (The Disco Boys Remix)
TTITLE19=Spencer and Hill - Young Love
TTITLE20=Britney Spears - Circus (Tonal Remix)
TTITLE21=Big Ali feat. Dollarman - Hit The Floor "Power"
EXTD=
EXTT0=
EXTT1=
EXTT2=
EXTT3=
EXTT4=
EXTT5=
EXTT6=
EXTT7=
EXTT8=
EXTT9=
EXTT10=
EXTT11=
EXTT12=
EXTT13=
EXTT14=
EXTT15=
EXTT16=
EXTT17=
EXTT18=
EXTT19=
EXTT20=
EXTT21=
PLAYORDER=
